<svg xmlns="http://www.w3.org/2000/svg" viewBox="0 0 100 100"><defs><style>.cls-1{fill:#fff;}.cls-2{fill:none;}</style></defs><title>Asset 1</title><g id="Layer_2" data-name="Layer 2"><g id="Layer_1-2" data-name="Layer 1"><path class="cls-1" d="M58.24,64,36,41.71,17.82,59.87A15.75,15.75,0,1,0,40.07,82.18ZM71.06,5A23.95,23.95,0,0,1,88,45.85L66.91,66.91,45.85,88A23.93,23.93,0,1,1,12,54.09L54.15,12A23.91,23.91,0,0,1,71.06,5ZM82.18,17.76a15.8,15.8,0,0,0-22.25,0L41.76,35.93,64,58.24,82.18,40.07a15.73,15.73,0,0,0,0-22.31Z"/><rect class="cls-2" width="100" height="100"/></g></g></svg>