<svg xmlns="http://www.w3.org/2000/svg" xmlns:xlink="http://www.w3.org/1999/xlink" viewBox="0 0 896.91 283.2"><defs><style>.cls-1{isolation:isolate;}.cls-2{fill:url(#radial-gradient);}.cls-17,.cls-3{fill:#fff;}.cls-4{fill:#c6eafa;}.cls-13,.cls-19,.cls-4{opacity:0.42;}.cls-10,.cls-12,.cls-13,.cls-19,.cls-20,.cls-26,.cls-30,.cls-4,.cls-7{mix-blend-mode:multiply;}.cls-5,.cls-7{fill:#aca5af;}.cls-6{fill:#ded4e2;opacity:0.8;}.cls-16,.cls-21,.cls-27,.cls-6{mix-blend-mode:overlay;}.cls-8{fill:#f3fafd;}.cls-9{fill:#e1f2f2;}.cls-10,.cls-15{fill:#75cdd5;}.cls-11{fill:#3c59a0;}.cls-12{fill:#7e92ca;}.cls-13{fill:#8a7868;}.cls-14{fill:#b1bee1;}.cls-16{fill:#95d6dc;}.cls-17{opacity:0.14;}.cls-18{fill:#c0e8fb;}.cls-20{fill:#2eb991;}.cls-21{fill:#ffd68b;opacity:0.54;}.cls-22{fill:#445ba9;}.cls-23{fill:#5dc7d1;}.cls-24{fill:#4a66b0;}.cls-25{opacity:0.41;}.cls-25,.cls-28{mix-blend-mode:screen;}.cls-26,.cls-29,.cls-30{fill:#c5c1c9;}.cls-26{opacity:0.51;}.cls-27{fill:#aedfe4;}.cls-28{fill:#67c9d3;opacity:0.39;}.cls-31{fill:#858288;}</style><radialGradient id="radial-gradient" cx="436.89" cy="189.92" r="461.45" gradientTransform="translate(1.08 111.11) rotate(0.82) scale(1 0.38)" gradientUnits="userSpaceOnUse"><stop offset="0" stop-color="#fff"/><stop offset="0.03" stop-color="#fff" stop-opacity="0.96"/><stop offset="0.24" stop-color="#fff" stop-opacity="0.67"/><stop offset="0.44" stop-color="#fff" stop-opacity="0.43"/><stop offset="0.62" stop-color="#fff" stop-opacity="0.25"/><stop offset="0.78" stop-color="#fff" stop-opacity="0.11"/><stop offset="0.91" stop-color="#fff" stop-opacity="0.03"/><stop offset="1" stop-color="#fff" stop-opacity="0"/></radialGradient></defs><title>Asset 1</title><g class="cls-1"><g id="Layer_2" data-name="Layer 2"><g id="Layer_1-2" data-name="Layer 1"><path class="cls-2" d="M53.78,283.2H843.13c34.3-27.14,53.78-58.21,53.78-91.23C896.91,86,696.13,0,448.46,0S0,86,0,192C0,225,19.48,256.06,53.78,283.2Z"/><path class="cls-3" d="M190.15,193.37v70.85A10.74,10.74,0,0,0,200.89,275h40.94a10.74,10.74,0,0,0,10.74-10.75V193.37Z"/><path class="cls-4" d="M241.83,253.43H200.89a10.74,10.74,0,0,1-10.74-10.75v21.54A10.74,10.74,0,0,0,200.89,275h40.94a10.74,10.74,0,0,0,10.74-10.75V242.68A10.74,10.74,0,0,1,241.83,253.43Z"/><path class="cls-3" d="M240.74,166.13H202a31.13,31.13,0,0,0-11.83,24.46v2.78h62.42v-2.78A31.13,31.13,0,0,0,240.74,166.13Z"/><rect class="cls-5" x="201.46" y="138.04" width="39.42" height="28.09"/><rect class="cls-6" x="201.46" y="138.04" width="25.14" height="28.09"/><rect class="cls-6" x="207.35" y="138.04" width="13.35" height="28.09"/><rect class="cls-5" x="204.39" y="132.66" width="33.55" height="5.38"/><rect class="cls-7" x="204.39" y="136.17" width="33.55" height="1.87"/><rect class="cls-6" x="204.39" y="132.66" width="33.55" height="1.64"/><rect class="cls-8" x="211.77" y="108.43" width="20.32" height="24.24"/><rect class="cls-9" x="221.93" y="108.43" width="10.16" height="24.24"/><rect class="cls-8" x="136.46" y="113.68" width="75.31" height="6.86"/><rect class="cls-9" x="209.27" y="113.68" width="2.49" height="6.86"/><polygon class="cls-8" points="148.63 120.54 135.41 122.88 135.41 111.05 148.63 113.68 148.63 120.54"/><rect class="cls-10" x="130.24" y="110.26" width="5.17" height="13.22"/><rect class="cls-11" x="190.15" y="205.68" width="62.43" height="50.91"/><rect class="cls-12" x="190.15" y="205.68" width="62.43" height="6.95"/><rect class="cls-12" x="190.15" y="249.64" width="62.43" height="6.95"/><path class="cls-3" d="M240.49,225.24H200.91a3.15,3.15,0,0,1-3.15-3.15h0a3.15,3.15,0,0,1,3.15-3.15h39.58a3.15,3.15,0,0,1,3.15,3.15h0A3.15,3.15,0,0,1,240.49,225.24Z"/><path class="cls-3" d="M228.93,234.29H213.41a3.16,3.16,0,0,1-3.16-3.15h0a3.16,3.16,0,0,1,3.16-3.15h15.52a3.15,3.15,0,0,1,3.15,3.15h0A3.15,3.15,0,0,1,228.93,234.29Z"/><path class="cls-3" d="M247.57,187c0,7.09-11.47,12.85-25.61,12.85s-25.6-5.76-25.6-12.85,11.46-12.85,25.6-12.85S247.57,179.9,247.57,187Z"/><path class="cls-3" d="M562.29,233v36.33c0,.18,0,.35,0,.53H505.75c0-.18,0-.35,0-.53v-36c0-7.79,3.34-15,8.75-18.8a18.86,18.86,0,0,0,4.34-4.3h30.33a19.08,19.08,0,0,0,4.21,3.83C558.91,217.78,562.29,225.14,562.29,233Z"/><path class="cls-13" d="M549.69,210.89H518.33c.17-.21.33-.42.48-.64h30.33Z"/><path class="cls-3" d="M505.75,269.89a5.6,5.6,0,0,0,5.58,5.08h45.35a5.6,5.6,0,0,0,5.58-5.08Z"/><rect class="cls-3" x="519.17" y="181.01" width="29.46" height="26.38"/><path class="cls-14" d="M546.26,204.69V184.94a1.8,1.8,0,1,0-3.58,0v19.67a.19.19,0,0,0,0,.08h-2.42s0-.05,0-.08V184.94a1.8,1.8,0,1,0-3.59,0v19.67s0,.06,0,.08h-3.63V184.94a1.8,1.8,0,1,0-3.58,0v19.67a.19.19,0,0,0,0,.08h-3.89s0-.05,0-.08V184.94a1.8,1.8,0,1,0-3.59,0v19.67s0,.06,0,.08h-2.87v2.69h29.46v-2.69Z"/><path class="cls-10" d="M542.21,176.92H526.08a.47.47,0,0,1-.46-.47V141.94a8.53,8.53,0,0,1,8.53-8.53h0a8.53,8.53,0,0,1,8.53,8.53v34.51A.47.47,0,0,1,542.21,176.92Z"/><path class="cls-10" d="M534.15,133.41a8.44,8.44,0,0,0-3,.55,8.52,8.52,0,0,1,5.53,8v34.51a.47.47,0,0,1-.46.47h6a.47.47,0,0,0,.47-.47V141.94A8.53,8.53,0,0,0,534.15,133.41Z"/><path class="cls-3" d="M548.63,180.9a4.34,4.34,0,0,0-4.34-4.34H523.5a4.33,4.33,0,0,0-4.33,4.34V181h29.46Z"/><path class="cls-4" d="M544.29,176.56h-7.37a4.33,4.33,0,0,1,4.33,4.34v26.48h7.38V180.9A4.34,4.34,0,0,0,544.29,176.56Z"/><path class="cls-15" d="M534.15,155.45c0,8-1.32,14.56-2.95,14.56s-2.94-6.52-2.94-14.56,1.31-14.56,2.94-14.56S534.15,147.41,534.15,155.45Z"/><path class="cls-3" d="M516.38,207.38s0,.06,0,.09h0a2.51,2.51,0,0,0,2.44,2.78h30.33a2.55,2.55,0,0,0,2.5-2.78h0s0-.06,0-.09Z"/><rect class="cls-11" x="505.72" y="234.76" width="56.56" height="35.13"/><rect class="cls-12" x="505.72" y="234.76" width="56.57" height="4"/><rect class="cls-12" x="505.72" y="265.89" width="56.54" height="4"/><rect class="cls-16" x="533.9" y="242.86" width="24.48" height="1.53"/><rect class="cls-16" x="533.9" y="246.29" width="24.48" height="1.53"/><rect class="cls-16" x="533.9" y="250.11" width="24.48" height="1.53"/><rect class="cls-16" x="533.9" y="254.23" width="24.48" height="1.53"/><path class="cls-4" d="M553.35,214.08a19.12,19.12,0,0,1-4.21-3.83h0a2.55,2.55,0,0,0,2.5-2.78h0a.28.28,0,0,0,0-.09H541.46v.09h0a2.55,2.55,0,0,1-2.5,2.78h0a19.12,19.12,0,0,0,4.21,3.83c5.55,3.7,8.94,11.06,8.94,18.95v36.33c0,.18,0,.35,0,.53A5.62,5.62,0,0,1,546.5,275h10.18a5.6,5.6,0,0,0,5.58-5.08,4.71,4.71,0,0,0,0-.53V233C562.29,225.14,558.9,217.78,553.35,214.08Z"/><ellipse class="cls-17" cx="527.57" cy="241.2" rx="20.44" ry="23.69"/><rect class="cls-3" x="423.39" y="172.68" width="67.12" height="76.96"/><path class="cls-16" d="M485.07,127.65l-17.11-22H423.75l-17.11,22a38.68,38.68,0,0,0-5.45,19.81V257.14a18.08,18.08,0,0,0,.59,4.5A17.83,17.83,0,0,0,419,275h53.67a17.81,17.81,0,0,0,17.23-13.33,17.63,17.63,0,0,0,.6-4.5V147.46A38.68,38.68,0,0,0,485.07,127.65Z"/><path class="cls-10" d="M417.23,92.64v.56c0,3.92,6.54,7.1,6.54,7.1v5.34H468V100.3s6.85-3.18,6.85-7.1v-.56Z"/><path class="cls-3" d="M474.78,87.4h-2.59v-35a9.13,9.13,0,0,0-9.13-9.13H428.39a9.13,9.13,0,0,0-9.12,9.13v35h-2.38a2.62,2.62,0,0,0,0,5.24h57.89a2.62,2.62,0,0,0,0-5.24Z"/><path class="cls-9" d="M441.78,92.64H416.89A2.62,2.62,0,0,1,414.27,90h0a2.62,2.62,0,0,1,2.62-2.62h24.89A2.61,2.61,0,0,1,444.39,90h0A2.62,2.62,0,0,1,441.78,92.64Z"/><path class="cls-18" d="M474.78,92.64H460.39A2.62,2.62,0,0,1,457.77,90h0a2.62,2.62,0,0,1,2.62-2.62h14.39A2.61,2.61,0,0,1,477.39,90h0A2.62,2.62,0,0,1,474.78,92.64Z"/><path class="cls-18" d="M463.06,43.3h-7.24A9.09,9.09,0,0,1,459,50.21V87.4h13.19v-35A9.13,9.13,0,0,0,463.06,43.3Z"/><path class="cls-9" d="M432.56,43.3h-4.17a9.13,9.13,0,0,0-9.12,9.13v35h22.42v-35A9.13,9.13,0,0,0,432.56,43.3Z"/><g class="cls-19"><path class="cls-14" d="M428.14,83.51h-4.75V51a2.38,2.38,0,0,1,2.38-2.37h0A2.37,2.37,0,0,1,428.14,51Z"/><path class="cls-14" d="M434.92,83.51h-4.75V51a2.37,2.37,0,0,1,2.37-2.37h0A2.38,2.38,0,0,1,434.92,51Z"/><path class="cls-14" d="M441.69,83.51h-4.75V51a2.37,2.37,0,0,1,2.37-2.37h0A2.38,2.38,0,0,1,441.69,51Z"/><path class="cls-14" d="M448.46,83.51h-4.75V51a2.37,2.37,0,0,1,2.37-2.37h0A2.38,2.38,0,0,1,448.46,51Z"/><path class="cls-14" d="M455.23,83.51h-4.75V51a2.37,2.37,0,0,1,2.37-2.37h0A2.38,2.38,0,0,1,455.23,51Z"/><path class="cls-14" d="M462,83.51h-4.75V51a2.37,2.37,0,0,1,2.37-2.37h0A2.37,2.37,0,0,1,462,51Z"/><path class="cls-14" d="M468.77,83.51H464V51a2.37,2.37,0,0,1,2.37-2.37h0A2.37,2.37,0,0,1,468.77,51Z"/></g><rect class="cls-20" x="423.39" y="172.68" width="29.5" height="76.96"/><ellipse class="cls-21" cx="431.14" cy="192.81" rx="26.62" ry="66.75"/><path class="cls-10" d="M485.07,127.65l-17.11-22H445.5l17.11,22a38.68,38.68,0,0,1,5.45,19.81V257.14a18.08,18.08,0,0,1-.59,4.5A17.83,17.83,0,0,1,450.23,275h22.46a17.81,17.81,0,0,0,17.23-13.33,17.63,17.63,0,0,0,.6-4.5V147.46A38.68,38.68,0,0,0,485.07,127.65Z"/><rect class="cls-22" x="436.94" y="191.97" width="50.58" height="11.9" rx="5"/><path class="cls-22" d="M470.14,230.76h-34.5a2,2,0,0,1-2-2h0a2,2,0,0,1,2-2h34.5a2,2,0,0,1,2,2h0A2,2,0,0,1,470.14,230.76Z"/><path class="cls-22" d="M470.14,237.39h-34.5a2,2,0,0,1-2-2h0a2,2,0,0,1,2-2h34.5a2,2,0,0,1,2,2h0A2,2,0,0,1,470.14,237.39Z"/><path class="cls-22" d="M470.14,243.14h-34.5a2,2,0,0,1-2-2h0a2,2,0,0,1,2-2h34.5a2,2,0,0,1,2,2h0A2,2,0,0,1,470.14,243.14Z"/><path class="cls-9" d="M279.34,162.92l-.17,95A16.86,16.86,0,0,0,296,274.76H355.7a16.86,16.86,0,0,0,16.85-16.86v-95Z"/><path class="cls-8" d="M300.86,257.9v-95H279.34l-.17,95A16.86,16.86,0,0,0,296,274.76h21.69A16.85,16.85,0,0,1,300.86,257.9Z"/><polygon class="cls-18" points="380.53 150.25 372.55 162.92 279.34 162.92 271.19 150.25 380.53 150.25"/><path class="cls-4" d="M372.55,162.92l8-12.66H339.4l-8,12.66v95a16.85,16.85,0,0,1-16.85,16.86H355.7c9.3,0,16.85-7.55,16.85-17.56Z"/><rect class="cls-9" x="271.19" y="142.76" width="109.35" height="7.5"/><rect class="cls-10" x="339.4" y="142.76" width="41.13" height="7.5"/><rect class="cls-3" x="283.47" y="184.31" width="84.16" height="39.95"/><path class="cls-22" d="M357.4,204.28H303.74c-5.59,0-4.53-7.46-4.5-7.36a4.5,4.5,0,0,1,4.5-4.5H357.4c5.59,0,4.53,7.46,4.5,7.36A4.5,4.5,0,0,1,357.4,204.28Z"/><path class="cls-4" d="M376,138.26c-102.62,0-105.66-2-104.84,4.5H380.53A4.49,4.49,0,0,0,376,138.26Z"/><path class="cls-18" d="M265.5,135.35a8.64,8.64,0,0,0-1.84,5.25h124.4a8.59,8.59,0,0,0-1.85-5.25Z"/><polygon class="cls-3" points="265.5 135.35 386.21 135.35 387.07 136.7 387.09 136.73 264.63 136.73 265.5 135.35"/><path class="cls-15" d="M649.31,143.85H597.87A22.12,22.12,0,0,0,575.75,166V275h95.68V166A22.12,22.12,0,0,0,649.31,143.85Z"/><path class="cls-23" d="M589.86,258.18l5,8.25a6.36,6.36,0,1,0,10.85-6.62l-5-8.25Z"/><path class="cls-24" d="M595.35,242.76a6.36,6.36,0,1,0-10.86,6.63l5.37,8.79,10.86-6.62Z"/><path class="cls-12" d="M597.15,264.23l-5-8.25-5.37-8.8a6.34,6.34,0,0,1,0-6.6l-.12.06a6.37,6.37,0,0,0-2.12,8.75l5.37,8.79,5,8.25a6.36,6.36,0,0,0,10.87,0A6.36,6.36,0,0,1,597.15,264.23Z"/><g class="cls-25"><path class="cls-3" d="M588.66,243.13a1,1,0,0,1,1.69-1.07l12.75,20.08a1,1,0,0,1-.31,1.38C601.43,264.38,601.57,263.14,588.66,243.13Z"/></g><path class="cls-23" d="M608.44,261.93l5,8.25a6.36,6.36,0,1,0,10.86-6.63l-5-8.25Z"/><path class="cls-24" d="M613.93,246.51a6.36,6.36,0,0,0-10.86,6.62l5.37,8.8,10.86-6.63Z"/><path class="cls-12" d="M615.73,268l-5-8.25-5.37-8.8a6.39,6.39,0,0,1,0-6.6l-.12.07a6.36,6.36,0,0,0-2.12,8.74l5.37,8.8,5,8.25a6.35,6.35,0,0,0,10.87,0A6.35,6.35,0,0,1,615.73,268Z"/><g class="cls-25"><path class="cls-3" d="M607.24,246.88a1,1,0,0,1,1.69-1.08l12.75,20.09a1,1,0,0,1-.31,1.38C620,268.13,620.15,266.88,607.24,246.88Z"/></g><path class="cls-23" d="M626.38,262.36l5,8.25A6.36,6.36,0,1,0,642.27,264l-5-8.25Z"/><path class="cls-24" d="M631.87,246.94A6.36,6.36,0,1,0,621,253.57l5.37,8.79,10.86-6.62Z"/><path class="cls-12" d="M633.67,268.4l-5-8.25-5.37-8.79a6.34,6.34,0,0,1,0-6.6l-.12.06a6.37,6.37,0,0,0-2.12,8.75l5.37,8.79,5,8.25a6.36,6.36,0,0,0,10.87,0A6.36,6.36,0,0,1,633.67,268.4Z"/><g class="cls-25"><path class="cls-3" d="M625.18,247.31a1,1,0,0,1,1.69-1.07l12.75,20.08a1,1,0,0,1-.31,1.38C638,268.56,638.09,267.31,625.18,247.31Z"/></g><path class="cls-23" d="M590.61,236.26l5,8.25a6.36,6.36,0,1,0,10.86-6.62l-5-8.25Z"/><path class="cls-24" d="M596.1,220.84a6.36,6.36,0,1,0-10.86,6.63l5.37,8.79,10.86-6.62Z"/><path class="cls-12" d="M597.89,242.3l-5-8.25-5.37-8.79a6.36,6.36,0,0,1,0-6.6l-.12.06a6.37,6.37,0,0,0-2.11,8.75l5.37,8.79,5,8.25a6.35,6.35,0,0,0,10.87,0A6.36,6.36,0,0,1,597.89,242.3Z"/><g class="cls-25"><path class="cls-3" d="M589.4,221.21a1,1,0,0,1,1.69-1.07l12.75,20.08a1,1,0,0,1-.31,1.38C602.18,242.46,602.32,241.21,589.4,221.21Z"/></g><path class="cls-23" d="M608,235.84l5,8.25a6.36,6.36,0,1,0,10.86-6.62l-5-8.25Z"/><path class="cls-24" d="M613.47,220.42a6.36,6.36,0,1,0-10.86,6.63l5.37,8.79,10.86-6.62Z"/><path class="cls-12" d="M615.27,241.88l-5-8.25-5.37-8.79a6.39,6.39,0,0,1,0-6.6l-.12.06a6.37,6.37,0,0,0-2.12,8.75l5.37,8.79,5,8.25a6.36,6.36,0,0,0,8.74,2.12,6.26,6.26,0,0,0,2.13-2.15A6.35,6.35,0,0,1,615.27,241.88Z"/><g class="cls-25"><path class="cls-3" d="M606.78,220.79a1,1,0,0,1,1.69-1.07l12.75,20.08a1,1,0,0,1-.31,1.38C619.56,242,619.7,240.79,606.78,220.79Z"/></g><path class="cls-23" d="M625.92,236.26l5,8.25a6.36,6.36,0,1,0,10.86-6.62l-5-8.25Z"/><path class="cls-24" d="M631.41,220.84a6.36,6.36,0,1,0-10.86,6.63l5.37,8.79,10.86-6.62Z"/><path class="cls-12" d="M633.21,242.3l-5-8.25-5.37-8.79a6.34,6.34,0,0,1,0-6.6l-.12.06a6.37,6.37,0,0,0-2.12,8.75l5.37,8.79,5,8.25a6.36,6.36,0,0,0,10.87,0A6.36,6.36,0,0,1,633.21,242.3Z"/><g class="cls-25"><path class="cls-3" d="M624.72,221.21a1,1,0,0,1,1.69-1.07l12.75,20.08a1,1,0,0,1-.31,1.38C637.5,242.46,637.63,241.21,624.72,221.21Z"/></g><path class="cls-23" d="M645.42,262.36l5,8.25A6.36,6.36,0,1,0,661.31,264l-5-8.25Z"/><path class="cls-24" d="M650.91,246.94a6.36,6.36,0,1,0-10.86,6.63l5.37,8.79,10.86-6.62Z"/><path class="cls-12" d="M652.71,268.4l-5-8.25-5.37-8.79a6.34,6.34,0,0,1,0-6.6l-.13.06a6.37,6.37,0,0,0-2.11,8.75l5.37,8.79,5,8.25a6.36,6.36,0,0,0,10.87,0A6.36,6.36,0,0,1,652.71,268.4Z"/><g class="cls-25"><path class="cls-3" d="M644.22,247.31a1,1,0,0,1,1.69-1.07l12.75,20.08a1,1,0,0,1-.31,1.38C657,268.56,657.13,267.31,644.22,247.31Z"/></g><path class="cls-10" d="M649.31,143.85H627.92A22.12,22.12,0,0,1,650.05,166V275h21.38V166A22.12,22.12,0,0,0,649.31,143.85Z"/><rect class="cls-26" x="637.41" y="123.1" width="26.68" height="11.75"/><path class="cls-27" d="M619.71,143.85h-.09A22.12,22.12,0,0,0,597.5,166V275h44.33V166A22.12,22.12,0,0,0,619.71,143.85Z"/><rect class="cls-28" x="584.74" y="161.18" width="17.46" height="110.53"/><path class="cls-29" d="M588.55,135.43H657.3a0,0,0,0,1,0,0v4.88a4.13,4.13,0,0,1-4.12,4.13h-60.5a4.13,4.13,0,0,1-4.12-4.12v-4.87A0,0,0,0,1,588.55,135.43Z"/><path class="cls-30" d="M637.54,135.43v4.87a4.13,4.13,0,0,1-4.13,4.13h19.76a4.13,4.13,0,0,0,4.13-4.13v-4.87Z"/><rect class="cls-31" x="583.09" y="123.1" width="81" height="12.33"/><rect class="cls-3" x="583.09" y="123.1" width="81" height="11.75"/><path class="cls-3" d="M565,125h18.08a0,0,0,0,1,0,0v6.63a0,0,0,0,1,0,0H570a4.94,4.94,0,0,1-4.94-4.94V125A0,0,0,0,1,565,125Z"/><rect class="cls-3" y="274.97" width="896.91" height="8.23"/></g></g></g></svg>