<svg xmlns="http://www.w3.org/2000/svg" viewBox="0 0 112.91 19.57"><defs><style>.cls-1{fill:#224b3f;}</style></defs><title>Asset 1</title><g id="Layer_2" data-name="Layer 2"><g id="Layer_1-2" data-name="Layer 1"><path class="cls-1" d="M48.26,7.92,45.84,3.27V8.42H44.51v-7h1.86l1.92,3.76,1.92-3.76h1.86v7H50.7V3.28Z"/><path class="cls-1" d="M57.91,7.77a3.15,3.15,0,0,1-2.11.75,2.89,2.89,0,0,1-1.11-.21,2.83,2.83,0,0,1-.89-.57,2.59,2.59,0,0,1-.59-.86A2.67,2.67,0,0,1,53,5.82a2.66,2.66,0,0,1,2.68-2.7,2.52,2.52,0,0,1,1,.21,2.42,2.42,0,0,1,.82.59,2.61,2.61,0,0,1,.54.88,3.14,3.14,0,0,1,.2,1.12v.36H54.38a1.45,1.45,0,0,0,.54.79,1.51,1.51,0,0,0,.94.3,2,2,0,0,0,.64-.11A1.62,1.62,0,0,0,57,7ZM55.65,4.25a1.19,1.19,0,0,0-.81.28,1.42,1.42,0,0,0-.47.77h2.55a1.55,1.55,0,0,0-.48-.76A1.15,1.15,0,0,0,55.65,4.25Z"/><path class="cls-1" d="M63,8.42V8a2.14,2.14,0,0,1-.68.37,2.67,2.67,0,0,1-.79.13,2.63,2.63,0,0,1-1.88-.78,2.76,2.76,0,0,1-.57-.85,2.66,2.66,0,0,1-.21-1.05,2.77,2.77,0,0,1,.21-1,2.65,2.65,0,0,1,2.49-1.62,2.64,2.64,0,0,1,.74.1,2.46,2.46,0,0,1,.68.31V1.42l1.37-.3v7.3ZM60.25,5.81a1.47,1.47,0,0,0,.43,1.07,1.5,1.5,0,0,0,1.08.44,1.94,1.94,0,0,0,.7-.13A1.72,1.72,0,0,0,63,6.82v-2a1.39,1.39,0,0,0-.55-.36,1.82,1.82,0,0,0-.7-.13,1.47,1.47,0,0,0-1.51,1.51Z"/><path class="cls-1" d="M66.13,2.59a.74.74,0,0,1-.54-.23.74.74,0,0,1-.23-.55.71.71,0,0,1,.23-.55.76.76,0,0,1,1.09,0,.72.72,0,0,1,.24.55.75.75,0,0,1-.24.55A.75.75,0,0,1,66.13,2.59Zm.7.62V8.42H65.46V3.21Z"/><path class="cls-1" d="M70.44,7.32a1.59,1.59,0,0,0,.66-.14,1.94,1.94,0,0,0,.58-.44l.83.85a2.85,2.85,0,0,1-1,.68,3,3,0,0,1-1.17.25,2.8,2.8,0,0,1-1.07-.21,2.63,2.63,0,0,1-.87-.57,2.89,2.89,0,0,1-.58-.86,2.67,2.67,0,0,1-.21-1.06,2.72,2.72,0,0,1,.21-1.07,2.89,2.89,0,0,1,.58-.86,2.63,2.63,0,0,1,.87-.57,2.8,2.8,0,0,1,1.07-.21,3,3,0,0,1,1.19.24,2.73,2.73,0,0,1,1,.69l-.85.89a1.76,1.76,0,0,0-.6-.47,1.46,1.46,0,0,0-.69-.16,1.27,1.27,0,0,0-1,.44A1.53,1.53,0,0,0,69,5.82a1.49,1.49,0,0,0,.42,1.07A1.39,1.39,0,0,0,70.44,7.32Z"/><path class="cls-1" d="M73.89,2.59a.78.78,0,0,1-.55-.23.77.77,0,0,1-.22-.55A.77.77,0,0,1,73.89,1a.71.71,0,0,1,.55.23.72.72,0,0,1,.24.55.75.75,0,0,1-.24.55A.75.75,0,0,1,73.89,2.59Zm.7.62V8.42H73.22V3.21Z"/><path class="cls-1" d="M75.65,8.42V3.21H77v.41a2,2,0,0,1,.67-.38,2.26,2.26,0,0,1,.79-.13,2,2,0,0,1,2.06,2.07V8.42H79.17v-3a1,1,0,0,0-1.08-1.09,1.36,1.36,0,0,0-.61.13,1.23,1.23,0,0,0-.46.39V8.42Z"/><path class="cls-1" d="M86.25,7.77a3.29,3.29,0,0,1-1,.57,3.35,3.35,0,0,1-1.13.18A2.87,2.87,0,0,1,83,8.31a2.83,2.83,0,0,1-.89-.57,2.59,2.59,0,0,1-.59-.86,2.72,2.72,0,0,1,0-2.12,2.67,2.67,0,0,1,.56-.86A2.69,2.69,0,0,1,83,3.33a2.66,2.66,0,0,1,1-.21,2.53,2.53,0,0,1,1,.21,2.42,2.42,0,0,1,.82.59,2.61,2.61,0,0,1,.54.88,3.14,3.14,0,0,1,.19,1.12v.36H82.72a1.57,1.57,0,0,0,.54.79,1.53,1.53,0,0,0,.94.3,1.91,1.91,0,0,0,.64-.11A1.62,1.62,0,0,0,85.35,7ZM84,4.25a1.23,1.23,0,0,0-.81.28,1.55,1.55,0,0,0-.47.77h2.55a1.47,1.47,0,0,0-.47-.76A1.18,1.18,0,0,0,84,4.25Z"/><path class="cls-1" d="M89.54,8.42v-7h3.51a2.67,2.67,0,0,1,1,.16,2.06,2.06,0,0,1,.74.46,2,2,0,0,1,.49.69,2.17,2.17,0,0,1,.17.89,2,2,0,0,1-.17.86,2.23,2.23,0,0,1-.49.69,2.34,2.34,0,0,1-.75.45,2.81,2.81,0,0,1-.94.16H91V8.42Zm3.35-5.75H91V4.58h1.9a1.09,1.09,0,0,0,.76-.26.9.9,0,0,0,.28-.69.91.91,0,0,0-.28-.7A1,1,0,0,0,92.89,2.67Z"/><path class="cls-1" d="M96.26,8.42V3.21h1.37v.57a1.68,1.68,0,0,1,.61-.52A1.71,1.71,0,0,1,99,3.09a1.58,1.58,0,0,1,.34,0,.69.69,0,0,1,.23.09v1.2a1.17,1.17,0,0,0-.33-.11,2.22,2.22,0,0,0-.37,0,1.34,1.34,0,0,0-.73.2,1.36,1.36,0,0,0-.53.58V8.42Z"/><path class="cls-1" d="M101,2.59a.79.79,0,0,1-.78-.78.75.75,0,0,1,.23-.55A.74.74,0,0,1,101,1a.71.71,0,0,1,.55.23.71.71,0,0,1,.23.55.74.74,0,0,1-.23.55A.75.75,0,0,1,101,2.59Zm.69.62V8.42h-1.37V3.21Z"/><path class="cls-1" d="M105.32,7.32a1.59,1.59,0,0,0,.66-.14,1.94,1.94,0,0,0,.58-.44l.82.85a2.71,2.71,0,0,1-.95.68,3,3,0,0,1-1.17.25,2.76,2.76,0,0,1-1.07-.21,2.63,2.63,0,0,1-.87-.57,2.72,2.72,0,0,1-.58-.86,2.67,2.67,0,0,1-.21-1.06,2.68,2.68,0,0,1,.79-1.93,2.63,2.63,0,0,1,.87-.57,2.76,2.76,0,0,1,1.07-.21,3,3,0,0,1,1.19.24,2.73,2.73,0,0,1,1,.69l-.85.89a1.76,1.76,0,0,0-.6-.47,1.46,1.46,0,0,0-.69-.16,1.27,1.27,0,0,0-1,.44,1.53,1.53,0,0,0-.41,1.08,1.49,1.49,0,0,0,.42,1.07A1.39,1.39,0,0,0,105.32,7.32Z"/><path class="cls-1" d="M112.56,7.77a3.29,3.29,0,0,1-1,.57,3.35,3.35,0,0,1-1.13.18,2.87,2.87,0,0,1-1.1-.21,2.83,2.83,0,0,1-.89-.57,2.59,2.59,0,0,1-.59-.86,2.72,2.72,0,0,1,0-2.12,2.62,2.62,0,0,1,1.42-1.43,2.67,2.67,0,0,1,1.06-.21,2.52,2.52,0,0,1,1,.21,2.42,2.42,0,0,1,.82.59,2.61,2.61,0,0,1,.54.88,3.14,3.14,0,0,1,.19,1.12v.36H109a1.57,1.57,0,0,0,.54.79,1.53,1.53,0,0,0,.94.3,1.91,1.91,0,0,0,.64-.11,1.62,1.62,0,0,0,.51-.31ZM110.3,4.25a1.23,1.23,0,0,0-.81.28,1.55,1.55,0,0,0-.47.77h2.55a1.47,1.47,0,0,0-.47-.76A1.18,1.18,0,0,0,110.3,4.25Z"/><path class="cls-1" d="M44.51,17.42v-7h3.42a2.78,2.78,0,0,1,1,.16,2.25,2.25,0,0,1,.77.44,2,2,0,0,1,.5.69,2.09,2.09,0,0,1,.17.88A2,2,0,0,1,50,13.77a2.27,2.27,0,0,1-1,.77l1.56,2.88H48.91l-1.37-2.68H46v2.68Zm3.29-5.75H46v1.88H47.8a1.17,1.17,0,0,0,.78-.26.87.87,0,0,0,.3-.68.85.85,0,0,0-.3-.68A1.12,1.12,0,0,0,47.8,11.67Z"/><path class="cls-1" d="M55.58,16.77a3.15,3.15,0,0,1-2.11.75,2.89,2.89,0,0,1-1.11-.21,2.83,2.83,0,0,1-.89-.57,2.59,2.59,0,0,1-.59-.86,2.72,2.72,0,0,1,.56-3,2.65,2.65,0,0,1,.85-.57,2.67,2.67,0,0,1,1.06-.21,2.52,2.52,0,0,1,1,.21,2.42,2.42,0,0,1,.82.59,2.61,2.61,0,0,1,.54.88,3.14,3.14,0,0,1,.2,1.12v.36H52.05a1.45,1.45,0,0,0,.54.79,1.51,1.51,0,0,0,.94.3,2,2,0,0,0,.64-.11,1.62,1.62,0,0,0,.51-.31Zm-2.26-3.52a1.19,1.19,0,0,0-.81.28,1.42,1.42,0,0,0-.47.77h2.55a1.55,1.55,0,0,0-.48-.76A1.15,1.15,0,0,0,53.32,13.25Z"/><path class="cls-1" d="M59.21,17.45a2.58,2.58,0,0,1-1-.21,2.61,2.61,0,0,1-1.4-1.42,2.68,2.68,0,0,1,0-2.08,2.67,2.67,0,0,1,1.42-1.41,2.67,2.67,0,0,1,1.06-.2,2.29,2.29,0,0,1,.74.11,2.22,2.22,0,0,1,.66.31v-.34H62v5.21A2,2,0,0,1,61.34,19a2.9,2.9,0,0,1-1.91.56,5.43,5.43,0,0,1-1.16-.12,4.29,4.29,0,0,1-1-.35L57.73,18a4.55,4.55,0,0,0,.84.31,3.36,3.36,0,0,0,.82.11,1.39,1.39,0,0,0,.93-.27,1,1,0,0,0,.31-.77V17a2.36,2.36,0,0,1-1.42.47Zm-1.29-2.67a1.49,1.49,0,0,0,1.5,1.51,1.82,1.82,0,0,0,.67-.13,1.66,1.66,0,0,0,.54-.34V13.77a1.37,1.37,0,0,0-.54-.35,1.84,1.84,0,0,0-.66-.12,1.49,1.49,0,0,0-1.08.43A1.4,1.4,0,0,0,57.92,14.78Z"/><path class="cls-1" d="M63.76,11.59a.79.79,0,0,1-.77-.78.77.77,0,0,1,1.32-.55.72.72,0,0,1,.24.55.8.8,0,0,1-.79.78Zm.7.62v5.21H63.09V12.21Z"/><path class="cls-1" d="M65.08,16.8l.68-.91a4.45,4.45,0,0,0,.87.44,2.42,2.42,0,0,0,.82.15,1.54,1.54,0,0,0,.74-.15.47.47,0,0,0,.28-.4.39.39,0,0,0-.16-.32,1,1,0,0,0-.5-.17l-1-.15a2.18,2.18,0,0,1-1.17-.5,1.33,1.33,0,0,1-.41-1,1.44,1.44,0,0,1,.59-1.2,2.55,2.55,0,0,1,1.58-.45,3.77,3.77,0,0,1,2.14.65l-.66.88a3.72,3.72,0,0,0-.82-.38,2.66,2.66,0,0,0-.79-.12,1.05,1.05,0,0,0-.59.14.42.42,0,0,0-.23.37.37.37,0,0,0,.17.32,1.31,1.31,0,0,0,.54.17l1,.15a2.11,2.11,0,0,1,1.18.5,1.28,1.28,0,0,1,.41,1,1.35,1.35,0,0,1-.17.68,1.92,1.92,0,0,1-.48.55,2.43,2.43,0,0,1-.72.36,3.28,3.28,0,0,1-.91.13,4.8,4.8,0,0,1-1.33-.19A3.2,3.2,0,0,1,65.08,16.8Z"/><path class="cls-1" d="M71.05,16V13.36H70V12.21h1.08V10.88l1.37-.31v1.64h1.47v1.15H72.42v2.31a.69.69,0,0,0,.16.52.79.79,0,0,0,.55.15,2.22,2.22,0,0,0,.37,0l.37-.09v1.12a4.88,4.88,0,0,1-.53.11,4,4,0,0,1-.54.05,1.93,1.93,0,0,1-1.31-.4A1.44,1.44,0,0,1,71.05,16Z"/><path class="cls-1" d="M74.57,17.42V12.21h1.37v.57a1.68,1.68,0,0,1,.61-.52,1.71,1.71,0,0,1,.78-.17,1.58,1.58,0,0,1,.34,0,.69.69,0,0,1,.23.09v1.2a1.17,1.17,0,0,0-.33-.11,2.22,2.22,0,0,0-.37,0,1.34,1.34,0,0,0-.73.2,1.36,1.36,0,0,0-.53.58v3.37Z"/><path class="cls-1" d="M80.15,17.66l.08-.19-2-5.26h1.51L81,15.76l1.48-3.55H84l-2.4,5.62a3.17,3.17,0,0,1-.93,1.34,2.26,2.26,0,0,1-1.38.4l-.34,0-.27,0V18.33l.21,0h.27a1.07,1.07,0,0,0,.63-.18A1.22,1.22,0,0,0,80.15,17.66Z"/><path class="cls-1" d="M28.63,6.69h-2v1.9h2a1.12,1.12,0,0,0,.78-.27.88.88,0,0,0,.29-.68A.91.91,0,0,0,29.41,7,1.17,1.17,0,0,0,28.63,6.69Z"/><path class="cls-1" d="M20.38,6.69H18.25V8.61h2.13a1.07,1.07,0,0,0,.73-.26,1,1,0,0,0,0-1.39A1,1,0,0,0,20.38,6.69Z"/><path class="cls-1" d="M34,0H3.1A3.1,3.1,0,0,0,0,3.1V15.16a3.09,3.09,0,0,0,3.1,3.09H34a3.09,3.09,0,0,0,3.1-3.09V3.1A3.1,3.1,0,0,0,34,0ZM14.8,13.33H12.86V7.6l-2.77,5.13L7.33,7.58v5.75H5.44V4.93H8l2.08,4,2.07-4H14.8Zm8.46-4.62a2.68,2.68,0,0,1-.6.84,2.73,2.73,0,0,1-.91.56,3,3,0,0,1-1.13.21H18.25v3H16.19V4.93h4.43a3,3,0,0,1,1.14.2,2.77,2.77,0,0,1,.9.57,2.65,2.65,0,0,1,.6.87,2.74,2.74,0,0,1,.22,1.08A2.68,2.68,0,0,1,23.26,8.71Zm6.49,4.62-1.58-3.06H26.59v3.06H24.53V4.93h4.3A3.5,3.5,0,0,1,30,5.12a2.94,2.94,0,0,1,.94.56,2.52,2.52,0,0,1,.83,1.92A2.43,2.43,0,0,1,31.36,9a2.78,2.78,0,0,1-1.14,1l1.83,3.36Z"/></g></g></svg>